<svg viewBox="0 0 168 128" xmlns="http://www.w3.org/2000/svg" role="img" aria-label="Floppa3D">
  <style>
    .glyph-f { fill: var(--mark-color-1, #00875A); }
    .glyph-3 { fill: var(--mark-color-2, #26B99F); }
  </style>
  <g class="glyph-f">
    <rect x="0" y="0"   width="80" height="7"/>
    <rect x="0" y="11"  width="80" height="7"/>
    <rect x="0" y="22"  width="14" height="7"/>
    <rect x="0" y="33"  width="14" height="7"/>
    <rect x="0" y="44"  width="14" height="7"/>
    <rect x="0" y="55"  width="58" height="7"/>
    <rect x="0" y="66"  width="58" height="7"/>
    <rect x="0" y="77"  width="14" height="7"/>
    <rect x="0" y="88"  width="14" height="7"/>
    <rect x="0" y="99"  width="14" height="7"/>
    <rect x="0" y="110" width="14" height="7"/>
    <rect x="0" y="121" width="14" height="7"/>
  </g>
  <g class="glyph-3">
    <rect x="88"  y="0"   width="80" height="7"/>
    <rect x="88"  y="11"  width="80" height="7"/>
    <rect x="154" y="22"  width="14" height="7"/>
    <rect x="154" y="33"  width="14" height="7"/>
    <rect x="154" y="44"  width="14" height="7"/>
    <rect x="88"  y="55"  width="80" height="7"/>
    <rect x="88"  y="66"  width="80" height="7"/>
    <rect x="154" y="77"  width="14" height="7"/>
    <rect x="154" y="88"  width="14" height="7"/>
    <rect x="154" y="99"  width="14" height="7"/>
    <rect x="88"  y="110" width="80" height="7"/>
    <rect x="88"  y="121" width="80" height="7"/>
  </g>
</svg>
